# xmcd CD database file
#
# Track frame offsets:
#	150
#	13509
#	24185
#	35819
#	47433
#	60506
#	71753
#	85108
#	102771
#	112892
#	122961
#	134363
#	142398
#	155180
#	169474
#	188124
#	206103
#	220239
#	230810
#	241127
#	252149
#
# Disc length: 3587 seconds
#
# Revision: 1
# Processed by: cddbd v1.5.2PL0 Copyright (c) Steve Scherf et al.
# Submitted via: CDex 1.70beta2
#
DISCID=340e0115
DTITLE=Buster Brown - The Best of
DYEAR=2010
DGENRE=Blues
TTITLE0=Fannie Mae
TTITLE1=Lost in a Dream
TTITLE2=John Henry
TTITLE3=The Madison Shuffle
TTITLE4=Don't Dog your Woman
TTITLE5=Is you is or is you ain't my Baby
TTITLE6=Doctor Brown
TTITLE7=Sincerely
TTITLE8=Good News
TTITLE9=I got the Blues when it rains
TTITLE10=Sugar Babe
TTITLE11=I'm going - But I'll be back
TTITLE12=Raise a Ruckus tonight
TTITLE13=Gonna love my Baby
TTITLE14=St. Louis Blues
TTITLE15=When Things go wrong
TTITLE16=Blueberry Hill
TTITLE17=No more
TTITLE18=Broadway on Fire
TTITLE19=Fannie Mae (alternate)
TTITLE20=Raise a Ruckus tonight (alernate)
EXTD=YEAR: 2010
EXTT0=
EXTT1=
EXTT2=
EXTT3=
EXTT4=
EXTT5=
EXTT6=
EXTT7=
EXTT8=
EXTT9=
EXTT10=
EXTT11=
EXTT12=
EXTT13=
EXTT14=
EXTT15=
EXTT16=
EXTT17=
EXTT18=
EXTT19=
EXTT20=
PLAYORDER=
